<?xml version="1.0" encoding="UTF-8" standalone="no"?>
<!-- Created with Inkscape (http://www.inkscape.org/) -->

<svg
   version="1.1"
   id="svg132"
   width="256"
   height="256"
   viewBox="0 0 256 256"
   sodipodi:docname="database-press-icon.svg"
   inkscape:version="1.2.1 (9c6d41e410, 2022-07-14)"
   xml:space="preserve"
   inkscape:export-filename="banner-1544x500.png"
   inkscape:export-xdpi="192"
   inkscape:export-ydpi="192"
   xmlns:inkscape="http://www.inkscape.org/namespaces/inkscape"
   xmlns:sodipodi="http://sodipodi.sourceforge.net/DTD/sodipodi-0.dtd"
   xmlns:xlink="http://www.w3.org/1999/xlink"
   xmlns="http://www.w3.org/2000/svg"
   xmlns:svg="http://www.w3.org/2000/svg"><defs
     id="defs136"><linearGradient
       id="linearGradient12183"
       inkscape:swatch="solid"><stop
         style="stop-color:#b35320;stop-opacity:1;"
         offset="0"
         id="stop12181" /></linearGradient><linearGradient
       inkscape:collect="always"
       xlink:href="#linearGradient12183"
       id="linearGradient12185"
       x1="24.06879"
       y1="62.477612"
       x2="34.571022"
       y2="62.477612"
       gradientUnits="userSpaceOnUse"
       gradientTransform="matrix(0.26425434,0,0,0.26425434,21.688355,16.473561)" /><mask
       maskUnits="userSpaceOnUse"
       id="mask22942"><path
         style="opacity:1;fill:#ffffff;fill-opacity:1;stroke:none;stroke-width:1.5;stroke-linecap:round;stroke-linejoin:miter;stroke-miterlimit:2.5;stroke-dasharray:none;stroke-opacity:1"
         d="m 498.5,324.25 134.25,6 -1.25,-153.5 -133.25,15.5 z"
         id="path22944" /></mask></defs><sodipodi:namedview
     id="namedview134"
     pagecolor="#ffffff"
     bordercolor="#000000"
     borderopacity="0.25"
     inkscape:showpageshadow="2"
     inkscape:pageopacity="0.0"
     inkscape:pagecheckerboard="0"
     inkscape:deskcolor="#d1d1d1"
     showgrid="false"
     inkscape:zoom="2"
     inkscape:cx="176.25"
     inkscape:cy="138.75"
     inkscape:window-width="2400"
     inkscape:window-height="1261"
     inkscape:window-x="2391"
     inkscape:window-y="-9"
     inkscape:window-maximized="1"
     inkscape:current-layer="svg132" /><path
     id="path29233"
     style="display:inline;opacity:1;fill:#ffaf04;stroke-width:4.27929;stroke-linecap:round;stroke-miterlimit:2.5"
     transform="rotate(-15.848631)"
     d="M -273.73414,52.427216 H 509.0597 c 3e-5,0 5e-5,2.5e-5 5e-5,5.6e-5 V 275.84035 c 0,3e-5 -2e-5,6e-5 -5e-5,6e-5 h -782.79384 c -3e-5,0 -5e-5,-3e-5 -5e-5,-6e-5 V 52.427272 c 0,-3.1e-5 2e-5,-5.6e-5 5e-5,-5.6e-5 z" /><g
     id="g29251"
     transform="matrix(0.78674352,0,0,0.78674352,-145.85561,38.229464)"><text
       xml:space="preserve"
       style="font-style:italic;font-size:50.9836px;font-family:sans-serif;-inkscape-font-specification:'sans-serif Italic';opacity:1;fill:#1e81b0;fill-opacity:1;stroke:#000000;stroke-width:6.37295;stroke-linecap:round;stroke-linejoin:miter;stroke-miterlimit:2.5;stroke-dasharray:none;stroke-opacity:0.548309"
       x="37.264988"
       y="58.455284"
       id="text29237"><tspan
         sodipodi:role="line"
         id="tspan29235"
         x="37.264988"
         y="58.455284"
         style="stroke-width:6.37295">DATABASE PRESS</tspan></text><text
       xml:space="preserve"
       style="font-style:italic;font-size:50.9836px;font-family:sans-serif;-inkscape-font-specification:'sans-serif Italic';opacity:1;fill:none;fill-opacity:1;stroke:#ffffff;stroke-width:5.00488;stroke-linecap:round;stroke-linejoin:miter;stroke-miterlimit:2.5;stroke-dasharray:none;stroke-opacity:0.548309"
       x="37.293964"
       y="58.085945"
       id="text29241"><tspan
         sodipodi:role="line"
         id="tspan29239"
         x="37.293964"
         y="58.085945"
         style="stroke-width:5.00488">DATABASE PRESS</tspan></text><path
       id="path29243"
       style="opacity:0.716216;fill:#1e81b0;fill-opacity:1;stroke:#4fb97d;stroke-width:5.00488;stroke-linecap:round;stroke-linejoin:miter;stroke-miterlimit:2.5;stroke-dasharray:none;stroke-opacity:1"
       d="m 69.872338,36.237032 c -0.07932,3.020445 -0.748276,5.892278 -2.05793,8.605136 -1.394082,2.871144 -3.427124,5.070146 -6.09911,6.596998 -1.659622,0.945984 -3.427121,1.61813 -5.302492,2.016439 -1.858777,0.381698 -3.974794,0.572571 -6.348054,0.572571 h -3.0703 l -4.937373,4.057775 h 7.011899 c 2.904335,0 5.501651,-0.199134 7.791927,-0.597464 2.290276,-0.39831 4.53077,-1.186631 6.721466,-2.364963 3.568184,-1.974947 6.381249,-4.771413 8.439177,-8.389385 1.48199,-2.605435 2.4149,-5.327831 2.829656,-8.157042 z m 13.542514,6.381244 -9.202604,15.467675 h 5.202912 l 6.074218,-10.430722 h 8.621735 z m 18.496478,8.713013 0.80493,6.754662 h 5.00375 l -0.57257,-4.281822 z" /><path
       id="path29245"
       style="opacity:0.716216;fill:#eaa683;fill-opacity:1;stroke:#ff1c82;stroke-width:5.00488;stroke-linecap:round;stroke-linejoin:miter;stroke-miterlimit:2.5;stroke-dasharray:none;stroke-opacity:1"
       d="m 96.268618,21.018302 -11.451387,19.243314 4.306719,7.393613 h 12.34759 l 1.24472,10.430722 h 5.00375 l -4.92907,-37.067649 z m 20.189292,0 -0.94598,4.207139 h 13.21889 l -7.59277,32.86051 h 4.97886 l 7.59277,-32.86051 h 13.21889 l 0.94598,-4.207139 z m -17.849222,4.306715 2.315172,18.29733 H 87.85434 Z m 59.339782,3.319243 -17.51731,29.441691 h 5.2029 l 6.07422,-10.430722 h 15.98216 l 1.24472,10.430722 h 5.00375 l -1.81728,-13.68358 -5.67591,-6.306563 0.69704,5.526539 h -13.06952 l 6.85424,-11.658843 z m 22.23062,24.728365 -1.08705,4.713326 h 5.32739 z" /><path
       id="path29247"
       style="opacity:1;fill:#1e81b0;fill-opacity:1;stroke:#7cb578;stroke-width:5.00488;stroke-linecap:round;stroke-linejoin:miter;stroke-miterlimit:2.5;stroke-dasharray:none;stroke-opacity:1"
       d="m 292.26165,21.018302 -8.53877,37.067649 h 24.42134 l 0.97088,-4.20714 h -19.49226 l 3.23626,-14.015504 h 19.49226 l 0.97088,-4.182251 h -19.49226 l 2.38985,-10.455615 h 19.49226 l 0.97089,-4.207139 z m 50.16206,0 -7.85831,34.022243 5.20291,-0.970876 2.28198,-9.874751 h 5.40207 c 2.65539,0 4.92078,-0.307048 6.79615,-0.92109 1.89197,-0.630654 3.60138,-1.576642 5.12823,-2.837955 1.60984,-1.344292 2.85456,-2.920934 3.73415,-4.72992 0.8796,-1.825582 1.3194,-3.750747 1.3194,-5.775483 0,-1.510258 -0.25726,-2.796463 -0.77173,-3.858621 -0.51447,-1.078752 -1.2613,-1.991545 -2.24048,-2.738378 -0.8933,-0.705226 -2.04367,-1.240269 -3.41053,-1.634725 l -1.57664,4.331611 c 0.3449,0.173897 0.68072,0.360115 0.97918,0.589167 0.59746,0.464694 1.03726,1.062158 1.3194,1.792391 0.28215,0.730234 0.42321,1.518555 0.42321,2.364963 0,1.443868 -0.28215,2.754969 -0.84641,3.933302 -0.54767,1.178329 -1.38578,2.24049 -2.51432,3.186474 -0.96259,0.796618 -2.10773,1.377487 -3.43542,1.742601 -1.3111,0.365128 -2.96243,0.547674 -4.95397,0.547674 h -4.4312 l 3.5101,-15.110852 h 4.60546 c 1.25747,0 2.26739,0.103794 3.13668,0.26554 l -1.10364,-4.281827 c -0.32397,-0.0094 -0.59587,-0.04163 -0.93769,-0.04163 z m 30.7196,0 -6.45593,28.006117 5.2029,-0.97088 1.10365,-4.779711 h 7.0451 l 1.90857,2.896037 5.05354,-0.945983 -2.08283,-3.120089 c 3.13669,-0.912788 5.66761,-2.530923 7.59277,-4.854393 1.66405,-2.005388 2.56678,-4.300367 2.80477,-6.854236 l -1.07876,-5.44356 c -0.48701,-0.718863 -1.06216,-1.376157 -1.80069,-1.916863 -1.04555,-0.763424 -2.27368,-1.286205 -3.68436,-1.568344 -1.41068,-0.29873 -3.24456,-0.448095 -5.50164,-0.448095 z m -93.78523,1.028964 c -0.18685,1.617042 -0.5839,3.216948 -1.13684,4.796306 0.84867,0.46697 1.5732,0.976029 2.16581,1.518553 h 0.34851 l 1.12026,-5.302491 c -0.75822,-0.362621 -1.59218,-0.698853 -2.49774,-1.012368 z m 97.84299,3.028811 h 5.57633 c 1.32771,0 2.44795,0.09959 3.36074,0.298721 0.91279,0.199133 1.68451,0.555976 2.31518,1.070455 0.54766,0.431505 0.95427,0.954286 1.21981,1.568345 0.26554,0.597463 0.39831,1.335994 0.39831,2.215593 0,1.410677 -0.30705,2.746676 -0.92108,4.007989 -0.59747,1.244713 -1.44388,2.281978 -2.53923,3.111791 -0.97918,0.746829 -2.06622,1.26961 -3.26116,1.56834 -1.19492,0.298721 -2.6056,0.448098 -4.23203,0.448098 h -5.22781 z M 271.25083,38.037721 c -1.23378,1.401666 -2.57091,2.784174 -4.02458,4.140755 0.78286,0.165016 1.64416,0.321239 2.28198,0.497888 1.2945,0.365127 2.27368,0.929388 2.93753,1.692812 0.68044,0.763428 1.02067,1.717713 1.02067,2.862847 0,2.174105 -0.94599,3.966501 -2.83795,5.377178 -1.87537,1.394078 -4.58057,2.091121 -8.11555,2.091121 -2.15751,0 -4.39801,-0.398309 -6.72148,-1.194927 -0.76047,-0.268089 -1.4248,-0.627047 -2.10771,-0.97088 -1.67928,1.085385 -3.38918,2.15372 -5.15313,3.194771 2.04895,1.012713 4.13659,1.778295 6.26507,2.281983 2.1741,0.497884 4.46439,0.746828 6.87084,0.746828 2.78816,0 5.20291,-0.348515 7.24424,-1.045563 2.05794,-0.697039 3.85032,-1.659621 5.37718,-2.887739 1.42727,-1.145139 2.53921,-2.52263 3.33584,-4.132457 0.79662,-1.609832 1.19492,-3.227966 1.19492,-4.854393 0,-1.941756 -0.61405,-3.551593 -1.84217,-4.8295 -1.21153,-1.277908 -2.99562,-2.24049 -5.35228,-2.887744 -0.10065,-0.02676 -0.26877,-0.05621 -0.37342,-0.08297 z" /><path
       id="path29249"
       style="opacity:1;fill:#7b7b7b;fill-opacity:1;stroke:#7a78b5;stroke-width:5.00488;stroke-linecap:round;stroke-linejoin:miter;stroke-miterlimit:2.5;stroke-dasharray:none;stroke-opacity:1"
       d="m 452.78026,20.346156 c -4.74654,0 -8.62176,1.178332 -11.62567,3.534993 -2.98729,2.340062 -4.48098,5.2776 -4.48098,8.812592 0,2.091121 0.71364,3.842025 2.14093,5.252703 1.42728,1.410677 3.44372,2.40645 6.04932,2.987319 1.34427,0.315333 2.75499,0.614058 4.23203,0.896192 1.49365,0.26554 2.77987,0.547675 3.8586,0.846409 1.29452,0.365127 2.2737,0.929388 2.93754,1.692812 0.68047,0.763428 1.02066,1.717713 1.02066,2.862847 0,2.174105 -0.94597,3.966501 -2.83792,5.377178 -1.87539,1.394078 -4.58058,2.091121 -8.11557,2.091121 -2.1575,0 -4.39801,-0.398309 -6.72146,-1.194927 -2.30688,-0.813213 -4.25692,-1.974951 -5.85015,-3.485208 h -0.34839 l -1.19493,5.651016 c 2.09113,1.045558 4.22378,1.825582 6.39784,2.340066 2.17412,0.497884 4.46443,0.746828 6.87085,0.746828 2.78816,0 5.20292,-0.348515 7.24426,-1.045563 2.0579,-0.697039 3.85032,-1.659621 5.37715,-2.887739 1.42729,-1.145139 2.53924,-2.52263 3.33586,-4.132457 0.79661,-1.609832 1.19493,-3.227966 1.19493,-4.854393 0,-1.941756 -0.61406,-3.551593 -1.84217,-4.8295 -1.21154,-1.277908 -2.99562,-2.24049 -5.35229,-2.887744 -1.19493,-0.315334 -2.67202,-0.647254 -4.43121,-0.995773 -1.75918,-0.365128 -3.16986,-0.672147 -4.23201,-0.92109 -1.65965,-0.414922 -2.81306,-1.037262 -3.4603,-1.867074 -0.64745,-0.829809 -0.97107,-1.792392 -0.97107,-2.88774 0,-2.041336 0.89621,-3.725854 2.68858,-5.053547 1.80898,-1.327697 4.22373,-1.991547 7.24426,-1.991547 2.40647,0 4.69673,0.390025 6.87084,1.170031 2.19068,0.780024 3.87522,1.709411 5.05354,2.788164 h 0.34839 l 1.12023,-5.302491 c -1.52683,-0.73023 -3.35242,-1.360888 -5.47675,-1.891967 -2.10769,-0.547674 -4.45608,-0.821511 -7.04508,-0.821511 z m -26.56225,0.672146 a 52.574134,53.137425 0 0 0 -8.3562,4.207139 h 14.20636 l 0.97086,-4.207139 z m 48.00454,4.563957 c -1.78145,2.017255 -2.69686,4.381638 -2.69686,7.111482 0,2.091121 0.71363,3.842025 2.14088,5.252703 1.42728,1.410677 3.44373,2.40645 6.04933,2.987319 1.3443,0.315333 2.75498,0.614058 4.23206,0.896192 1.49365,0.26554 2.77983,0.547675 3.85861,0.846409 1.29451,0.365127 2.2737,0.929388 2.93754,1.692812 0.68043,0.763428 1.02065,1.717713 1.02065,2.862847 0,2.174105 -0.946,3.966501 -2.83795,5.377178 -1.87535,1.394078 -4.58054,2.091121 -8.11557,2.091121 -2.1575,0 -4.39797,-0.398309 -6.72147,-1.194927 -2.30684,-0.813213 -4.25691,-1.974951 -5.85015,-3.485208 h -0.34839 l -1.19493,5.651016 c 2.09114,1.045558 4.22374,1.825582 6.39785,2.340066 2.17411,0.497884 4.46438,0.746828 6.87084,0.746828 2.78817,0 5.20292,-0.348515 7.24422,-1.045563 2.05795,-0.697039 3.85032,-1.659621 5.37719,-2.887739 1.01985,-0.818249 1.81647,-1.799045 2.51434,-2.85455 a 52.574134,53.137425 0 0 0 -7.96618,-14.480198 c -0.57446,-0.124612 -0.99112,-0.235969 -1.64303,-0.365128 -1.75919,-0.365127 -3.16991,-0.672145 -4.23206,-0.92109 -1.6596,-0.414921 -2.81307,-1.037261 -3.4603,-1.867074 -0.64724,-0.829809 -0.9709,-1.792391 -0.9709,-2.887739 0,-1.229125 0.36241,-2.315654 1.01241,-3.286053 a 52.574134,53.137425 0 0 0 -3.618,-2.580713 z m -62.72539,4.348211 a 52.574134,53.137425 0 0 0 -6.52231,6.904026 l -4.89589,21.251455 h 24.42133 l 0.97089,-4.20714 h -19.49226 l 3.23625,-14.015504 h 19.49225 l 0.9709,-4.182251 h -19.49226 z m -16.58792,27.126514 a 52.574134,53.137425 0 0 0 -0.21575,1.028967 h 0.90449 z" /></g><g
     inkscape:groupmode="layer"
     id="layer1"
     inkscape:label="Image 1" /><g
     inkscape:groupmode="layer"
     inkscape:label="Image"
     id="g138"
     style="display:inline"><g
       id="g14910"
       transform="matrix(3.7842331,0,0,3.7842331,-82.07379,-62.339792)"><path
         style="fill:url(#linearGradient12185);fill-opacity:1;stroke:#e36868;stroke-width:1.13386;stroke-linecap:round;stroke-linejoin:miter;stroke-miterlimit:2.5;stroke-dasharray:none;stroke-opacity:1"
         d="m 24.638628,73.927734 v -24 c 0,0 -0.142488,-4.982172 2.054653,-3.324934 2.197141,1.657238 2.197141,7.137315 2.197141,7.137315 l 4.520373,9.527241 0.593701,15.747233 L 32.350135,75.5 c 0,0 1.017218,4.168766 -7.711507,-1.572266 z"
         id="path12178" /><path
         style="fill:#4162df;fill-opacity:0.748792;stroke:#a639ff;stroke-width:1.22566;stroke-linecap:round;stroke-linejoin:miter;stroke-miterlimit:2.5;stroke-dasharray:none;stroke-opacity:1"
         d="m 54.004131,74.586509 -0.516053,-20.093165 31.753782,0.12989 v 13.70441 z"
         id="path14649" /><path
         style="opacity:0.797297;fill:#eaa683;fill-opacity:1;stroke:#ff1c82;stroke-width:1.21434;stroke-linecap:round;stroke-linejoin:miter;stroke-miterlimit:2.5;stroke-dasharray:none;stroke-opacity:1"
         d="m 53.468174,59.097718 33.452513,-6.78573 -0.517194,-11.020171 -32.56279,3.539651 -0.372529,14.26625 v 0 0 0"
         id="path12297" /><path
         style="fill:#1e81b0;fill-opacity:1;stroke:#ffffff;stroke-width:1.13386;stroke-linecap:round;stroke-linejoin:miter;stroke-miterlimit:2.5;stroke-dasharray:none;stroke-opacity:1"
         d="M 29.472725,78.016894 31.611438,60.600859 34.117902,58.5 33.14563,49.360804 c 0,0 3.334387,0.248992 8.142604,-0.63091 4.808217,-0.879902 10.477383,-4.675508 10.477383,-4.675508 l 2.533278,30.589195 c 0,0 -2.152571,6.716333 -13.286702,6.58531 C 28.549436,81.082233 29.472725,78.016894 29.472725,78.016894 Z"
         id="path11529"
         sodipodi:nodetypes="ccccsccsc" /><rect
         style="opacity:1;fill:#1e81b0;fill-opacity:1;stroke:#ffffff;stroke-width:1.178;stroke-linecap:round;stroke-linejoin:miter;stroke-miterlimit:2.5;stroke-dasharray:none;stroke-opacity:0.548309"
         id="rect14758"
         width="10.883657"
         height="11.945292"
         x="74.375"
         y="56.389439"
         ry="2.0934336e-05" /><path
         style="fill:#eaa683;fill-opacity:1;stroke:#ff1c82;stroke-width:1.13386;stroke-linecap:round;stroke-linejoin:miter;stroke-miterlimit:2.5;stroke-dasharray:none;stroke-opacity:1"
         d="m 24.611326,43.517974 c 0,0 3.761334,-5.767976 11.627896,-5.767976 7.866563,0 23.023467,4.196166 12.408214,9.524484 -10.615254,5.328318 -24.527075,4.140962 -24.03611,-3.756508 z"
         id="path12241" /><path
         id="rect2132"
         style="fill:#b9b9b9;fill-opacity:0;stroke:#000000;stroke-width:1.13386;stroke-linecap:round;stroke-linejoin:miter;stroke-miterlimit:2.5;stroke-dasharray:none"
         d="m 38.019531,38.323242 c -7.406085,-0.04081 -13.409658,2.290659 -13.408203,5.207032 -0.07256,17.238537 0.133757,15.560878 0.0273,30.39746 -2.75e-4,2.916035 5.975609,5.309048 13.380859,5.34961 7.403374,0.04037 13.40495,-2.289788 13.40625,-5.205078 -0.01141,-17.04687 -0.0012,-15.695339 0,-30.395508 C 48.834505,39.08562 41.346786,38.38148 38.019531,38.323242 Z"
         sodipodi:nodetypes="ccccccc" /><ellipse
         style="fill:#c3c3c3;fill-opacity:0;stroke:#000000;stroke-width:1.12288;stroke-linecap:round;stroke-linejoin:miter;stroke-miterlimit:2.5;stroke-dasharray:none;stroke-opacity:1"
         id="ellipse2961"
         cx="38.019547"
         cy="43.382763"
         rx="13.407849"
         ry="5.2796574"
         transform="matrix(0.99998491,0.00549378,0,1,0,0)" /><path
         id="path3170"
         style="fill:none;stroke:#000000;stroke-width:1.13386;stroke-linecap:round;stroke-linejoin:miter;stroke-miterlimit:2.5;stroke-dasharray:none"
         d="m 24.638628,67.927734 c -2.75e-4,2.916035 5.975609,5.309048 13.380859,5.34961 7.403374,0.04037 13.40495,-2.289788 13.40625,-5.205078"
         sodipodi:nodetypes="ccc" /><rect
         style="display:inline;opacity:0.716216;fill:#184402;fill-opacity:0.94686;stroke:#4fb97d;stroke-width:0.807669;stroke-linecap:round;stroke-linejoin:miter;stroke-miterlimit:2.5;stroke-dasharray:none;stroke-opacity:1"
         id="rect3970"
         width="25.629509"
         height="4.5153661"
         x="47.341778"
         y="50.24247"
         ry="0.79890245"
         rx="0.33785972"
         transform="matrix(0.99707802,-0.07638992,0.15922482,0.98724235,0,0)" /><path
         id="path3172"
         style="fill:none;stroke:#000000;stroke-width:1.13386;stroke-linecap:round;stroke-linejoin:miter;stroke-miterlimit:2.5;stroke-dasharray:none"
         d="m 24.638628,61.927734 c -2.75e-4,2.916035 5.975609,5.309048 13.380859,5.34961 7.403374,0.04037 13.40495,-2.289788 13.40625,-5.205078"
         sodipodi:nodetypes="ccc" /><path
         id="path3174"
         style="fill:none;stroke:#000000;stroke-width:1.13386;stroke-linecap:round;stroke-linejoin:miter;stroke-miterlimit:2.5;stroke-dasharray:none"
         d="m 24.638628,55.927734 c -2.75e-4,2.916035 5.975609,5.309048 13.380859,5.34961 7.403374,0.04037 13.40495,-2.289788 13.40625,-5.205078"
         sodipodi:nodetypes="ccc" /><path
         id="path3176"
         style="fill:none;stroke:#000000;stroke-width:1.13386;stroke-linecap:round;stroke-linejoin:miter;stroke-miterlimit:2.5;stroke-dasharray:none"
         d="m 24.638628,49.927734 c -2.75e-4,2.916035 5.975609,5.309048 13.380859,5.34961 7.403374,0.04037 13.40495,-2.289788 13.40625,-5.205078"
         sodipodi:nodetypes="ccc" /><path
         id="path3178"
         style="fill:none;stroke:#000000;stroke-width:1.13386;stroke-linecap:round;stroke-linejoin:miter;stroke-miterlimit:2.5;stroke-dasharray:none"
         d="m 24.638628,43.927734 c -2.75e-4,2.916035 5.975609,5.309048 13.380859,5.34961 7.403374,0.04037 13.40495,-2.289788 13.40625,-5.205078"
         sodipodi:nodetypes="ccc" /><rect
         style="fill:none;fill-opacity:1;stroke:#000000;stroke-width:1.04631;stroke-linecap:round;stroke-linejoin:miter;stroke-miterlimit:2.5;stroke-dasharray:none;stroke-opacity:1"
         id="rect3232"
         width="34.292076"
         height="31.021366"
         x="51.38208"
         y="43.622215"
         ry="2.1719581e-05" /><rect
         style="fill:none;fill-opacity:1;stroke:#000000;stroke-width:1.06971;stroke-linecap:round;stroke-linejoin:miter;stroke-miterlimit:2.5;stroke-dasharray:none;stroke-opacity:1"
         id="rect3234"
         width="33.896229"
         height="0.23600227"
         x="51.391968"
         y="50.046379"
         ry="2.2716493e-05" /><rect
         style="fill:none;fill-opacity:1;stroke:#000000;stroke-width:1.06971;stroke-linecap:round;stroke-linejoin:miter;stroke-miterlimit:2.5;stroke-dasharray:none;stroke-opacity:1"
         id="rect3962"
         width="33.896229"
         height="0.23600227"
         x="51.391968"
         y="56.271439"
         ry="2.2716493e-05" /><path
         style="display:inline;opacity:1;fill:#652727;fill-opacity:0.693237;stroke:#ffffff;stroke-width:1.178;stroke-linecap:round;stroke-linejoin:miter;stroke-miterlimit:2.5;stroke-dasharray:none;stroke-opacity:1"
         id="path12357"
         sodipodi:type="arc"
         sodipodi:cx="77.015945"
         sodipodi:cy="74.407433"
         sodipodi:rx="9.5466862"
         sodipodi:ry="3.2308726"
         sodipodi:start="0"
         sodipodi:end="4.7547127"
         sodipodi:arc-type="slice"
         d="m 86.562632,74.407433 a 9.5466862,3.2308726 0 0 1 -5.986854,2.997852 9.5466862,3.2308726 0 0 1 -10.451691,-0.762134 9.5466862,3.2308726 0 0 1 -1.807738,-3.566231 9.5466862,3.2308726 0 0 1 9.103527,-1.897467 l -0.403931,3.22798 z" /><rect
         style="fill:none;fill-opacity:1;stroke:#000000;stroke-width:1.06971;stroke-linecap:round;stroke-linejoin:miter;stroke-miterlimit:2.5;stroke-dasharray:none;stroke-opacity:1"
         id="rect3964"
         width="33.896229"
         height="0.23600227"
         x="51.391968"
         y="62.496498"
         ry="2.2716493e-05" /><rect
         style="fill:none;fill-opacity:1;stroke:#000000;stroke-width:1.06971;stroke-linecap:round;stroke-linejoin:miter;stroke-miterlimit:2.5;stroke-dasharray:none;stroke-opacity:1"
         id="rect3966"
         width="33.896229"
         height="0.23600227"
         x="51.391968"
         y="68.721558"
         ry="2.2716493e-05" /><rect
         style="fill:none;fill-opacity:1;stroke:#000000;stroke-width:1.01823;stroke-linecap:round;stroke-linejoin:miter;stroke-miterlimit:2.5;stroke-dasharray:none;stroke-opacity:1"
         id="rect3968"
         width="11.958422"
         height="31.065109"
         x="62.36087"
         y="43.606785"
         ry="2.170574e-05" /></g></g><g
     id="g22882"
     transform="matrix(0.78674352,0,0,0.78674352,-27.855607,-8.7705358)"><text
       xml:space="preserve"
       style="font-style:italic;font-size:50.9836px;font-family:sans-serif;-inkscape-font-specification:'sans-serif Italic';opacity:1;fill:#1e81b0;fill-opacity:1;stroke:#000000;stroke-width:6.37295;stroke-linecap:round;stroke-linejoin:miter;stroke-miterlimit:2.5;stroke-dasharray:none;stroke-opacity:0.548309"
       x="37.264988"
       y="58.455284"
       id="text14971"><tspan
         sodipodi:role="line"
         id="tspan14969"
         x="37.264988"
         y="58.455284"
         style="stroke-width:6.37295">DATABASE PRESS</tspan></text><text
       xml:space="preserve"
       style="font-style:italic;font-size:50.9836px;font-family:sans-serif;-inkscape-font-specification:'sans-serif Italic';opacity:1;fill:none;fill-opacity:1;stroke:#ffffff;stroke-width:5.00488;stroke-linecap:round;stroke-linejoin:miter;stroke-miterlimit:2.5;stroke-dasharray:none;stroke-opacity:0.548309"
       x="37.293964"
       y="58.085945"
       id="text14966"><tspan
         sodipodi:role="line"
         id="tspan14964"
         x="37.293964"
         y="58.085945"
         style="stroke-width:5.00488">DATABASE PRESS</tspan></text><path
       id="path15027"
       style="opacity:0.716216;fill:#1e81b0;fill-opacity:1;stroke:#4fb97d;stroke-width:5.00488;stroke-linecap:round;stroke-linejoin:miter;stroke-miterlimit:2.5;stroke-dasharray:none;stroke-opacity:1"
       d="m 69.872338,36.237032 c -0.07932,3.020445 -0.748276,5.892278 -2.05793,8.605136 -1.394082,2.871144 -3.427124,5.070146 -6.09911,6.596998 -1.659622,0.945984 -3.427121,1.61813 -5.302492,2.016439 -1.858777,0.381698 -3.974794,0.572571 -6.348054,0.572571 h -3.0703 l -4.937373,4.057775 h 7.011899 c 2.904335,0 5.501651,-0.199134 7.791927,-0.597464 2.290276,-0.39831 4.53077,-1.186631 6.721466,-2.364963 3.568184,-1.974947 6.381249,-4.771413 8.439177,-8.389385 1.48199,-2.605435 2.4149,-5.327831 2.829656,-8.157042 z m 13.542514,6.381244 -9.202604,15.467675 h 5.202912 l 6.074218,-10.430722 h 8.621735 z m 18.496478,8.713013 0.80493,6.754662 h 5.00375 l -0.57257,-4.281822 z" /><path
       id="path15129"
       style="opacity:0.716216;fill:#eaa683;fill-opacity:1;stroke:#ff1c82;stroke-width:5.00488;stroke-linecap:round;stroke-linejoin:miter;stroke-miterlimit:2.5;stroke-dasharray:none;stroke-opacity:1"
       d="m 96.268618,21.018302 -11.451387,19.243314 4.306719,7.393613 h 12.34759 l 1.24472,10.430722 h 5.00375 l -4.92907,-37.067649 z m 20.189292,0 -0.94598,4.207139 h 13.21889 l -7.59277,32.86051 h 4.97886 l 7.59277,-32.86051 h 13.21889 l 0.94598,-4.207139 z m -17.849222,4.306715 2.315172,18.29733 H 87.85434 Z m 59.339782,3.319243 -17.51731,29.441691 h 5.2029 l 6.07422,-10.430722 h 15.98216 l 1.24472,10.430722 h 5.00375 l -1.81728,-13.68358 -5.67591,-6.306563 0.69704,5.526539 h -13.06952 l 6.85424,-11.658843 z m 22.23062,24.728365 -1.08705,4.713326 h 5.32739 z" /><path
       id="path15550"
       style="opacity:1;fill:#1e81b0;fill-opacity:1;stroke:#7cb578;stroke-width:5.00488;stroke-linecap:round;stroke-linejoin:miter;stroke-miterlimit:2.5;stroke-dasharray:none;stroke-opacity:1"
       d="m 292.26165,21.018302 -8.53877,37.067649 h 24.42134 l 0.97088,-4.20714 h -19.49226 l 3.23626,-14.015504 h 19.49226 l 0.97088,-4.182251 h -19.49226 l 2.38985,-10.455615 h 19.49226 l 0.97089,-4.207139 z m 50.16206,0 -7.85831,34.022243 5.20291,-0.970876 2.28198,-9.874751 h 5.40207 c 2.65539,0 4.92078,-0.307048 6.79615,-0.92109 1.89197,-0.630654 3.60138,-1.576642 5.12823,-2.837955 1.60984,-1.344292 2.85456,-2.920934 3.73415,-4.72992 0.8796,-1.825582 1.3194,-3.750747 1.3194,-5.775483 0,-1.510258 -0.25726,-2.796463 -0.77173,-3.858621 -0.51447,-1.078752 -1.2613,-1.991545 -2.24048,-2.738378 -0.8933,-0.705226 -2.04367,-1.240269 -3.41053,-1.634725 l -1.57664,4.331611 c 0.3449,0.173897 0.68072,0.360115 0.97918,0.589167 0.59746,0.464694 1.03726,1.062158 1.3194,1.792391 0.28215,0.730234 0.42321,1.518555 0.42321,2.364963 0,1.443868 -0.28215,2.754969 -0.84641,3.933302 -0.54767,1.178329 -1.38578,2.24049 -2.51432,3.186474 -0.96259,0.796618 -2.10773,1.377487 -3.43542,1.742601 -1.3111,0.365128 -2.96243,0.547674 -4.95397,0.547674 h -4.4312 l 3.5101,-15.110852 h 4.60546 c 1.25747,0 2.26739,0.103794 3.13668,0.26554 l -1.10364,-4.281827 c -0.32397,-0.0094 -0.59587,-0.04163 -0.93769,-0.04163 z m 30.7196,0 -6.45593,28.006117 5.2029,-0.97088 1.10365,-4.779711 h 7.0451 l 1.90857,2.896037 5.05354,-0.945983 -2.08283,-3.120089 c 3.13669,-0.912788 5.66761,-2.530923 7.59277,-4.854393 1.66405,-2.005388 2.56678,-4.300367 2.80477,-6.854236 l -1.07876,-5.44356 c -0.48701,-0.718863 -1.06216,-1.376157 -1.80069,-1.916863 -1.04555,-0.763424 -2.27368,-1.286205 -3.68436,-1.568344 -1.41068,-0.29873 -3.24456,-0.448095 -5.50164,-0.448095 z m -93.78523,1.028964 c -0.18685,1.617042 -0.5839,3.216948 -1.13684,4.796306 0.84867,0.46697 1.5732,0.976029 2.16581,1.518553 h 0.34851 l 1.12026,-5.302491 c -0.75822,-0.362621 -1.59218,-0.698853 -2.49774,-1.012368 z m 97.84299,3.028811 h 5.57633 c 1.32771,0 2.44795,0.09959 3.36074,0.298721 0.91279,0.199133 1.68451,0.555976 2.31518,1.070455 0.54766,0.431505 0.95427,0.954286 1.21981,1.568345 0.26554,0.597463 0.39831,1.335994 0.39831,2.215593 0,1.410677 -0.30705,2.746676 -0.92108,4.007989 -0.59747,1.244713 -1.44388,2.281978 -2.53923,3.111791 -0.97918,0.746829 -2.06622,1.26961 -3.26116,1.56834 -1.19492,0.298721 -2.6056,0.448098 -4.23203,0.448098 h -5.22781 z M 271.25083,38.037721 c -1.23378,1.401666 -2.57091,2.784174 -4.02458,4.140755 0.78286,0.165016 1.64416,0.321239 2.28198,0.497888 1.2945,0.365127 2.27368,0.929388 2.93753,1.692812 0.68044,0.763428 1.02067,1.717713 1.02067,2.862847 0,2.174105 -0.94599,3.966501 -2.83795,5.377178 -1.87537,1.394078 -4.58057,2.091121 -8.11555,2.091121 -2.15751,0 -4.39801,-0.398309 -6.72148,-1.194927 -0.76047,-0.268089 -1.4248,-0.627047 -2.10771,-0.97088 -1.67928,1.085385 -3.38918,2.15372 -5.15313,3.194771 2.04895,1.012713 4.13659,1.778295 6.26507,2.281983 2.1741,0.497884 4.46439,0.746828 6.87084,0.746828 2.78816,0 5.20291,-0.348515 7.24424,-1.045563 2.05794,-0.697039 3.85032,-1.659621 5.37718,-2.887739 1.42727,-1.145139 2.53921,-2.52263 3.33584,-4.132457 0.79662,-1.609832 1.19492,-3.227966 1.19492,-4.854393 0,-1.941756 -0.61405,-3.551593 -1.84217,-4.8295 -1.21153,-1.277908 -2.99562,-2.24049 -5.35228,-2.887744 -0.10065,-0.02676 -0.26877,-0.05621 -0.37342,-0.08297 z" /><path
       id="path16555"
       style="opacity:1;fill:#7b7b7b;fill-opacity:1;stroke:#7a78b5;stroke-width:5.00488;stroke-linecap:round;stroke-linejoin:miter;stroke-miterlimit:2.5;stroke-dasharray:none;stroke-opacity:1"
       d="m 452.78026,20.346156 c -4.74654,0 -8.62176,1.178332 -11.62567,3.534993 -2.98729,2.340062 -4.48098,5.2776 -4.48098,8.812592 0,2.091121 0.71364,3.842025 2.14093,5.252703 1.42728,1.410677 3.44372,2.40645 6.04932,2.987319 1.34427,0.315333 2.75499,0.614058 4.23203,0.896192 1.49365,0.26554 2.77987,0.547675 3.8586,0.846409 1.29452,0.365127 2.2737,0.929388 2.93754,1.692812 0.68047,0.763428 1.02066,1.717713 1.02066,2.862847 0,2.174105 -0.94597,3.966501 -2.83792,5.377178 -1.87539,1.394078 -4.58058,2.091121 -8.11557,2.091121 -2.1575,0 -4.39801,-0.398309 -6.72146,-1.194927 -2.30688,-0.813213 -4.25692,-1.974951 -5.85015,-3.485208 h -0.34839 l -1.19493,5.651016 c 2.09113,1.045558 4.22378,1.825582 6.39784,2.340066 2.17412,0.497884 4.46443,0.746828 6.87085,0.746828 2.78816,0 5.20292,-0.348515 7.24426,-1.045563 2.0579,-0.697039 3.85032,-1.659621 5.37715,-2.887739 1.42729,-1.145139 2.53924,-2.52263 3.33586,-4.132457 0.79661,-1.609832 1.19493,-3.227966 1.19493,-4.854393 0,-1.941756 -0.61406,-3.551593 -1.84217,-4.8295 -1.21154,-1.277908 -2.99562,-2.24049 -5.35229,-2.887744 -1.19493,-0.315334 -2.67202,-0.647254 -4.43121,-0.995773 -1.75918,-0.365128 -3.16986,-0.672147 -4.23201,-0.92109 -1.65965,-0.414922 -2.81306,-1.037262 -3.4603,-1.867074 -0.64745,-0.829809 -0.97107,-1.792392 -0.97107,-2.88774 0,-2.041336 0.89621,-3.725854 2.68858,-5.053547 1.80898,-1.327697 4.22373,-1.991547 7.24426,-1.991547 2.40647,0 4.69673,0.390025 6.87084,1.170031 2.19068,0.780024 3.87522,1.709411 5.05354,2.788164 h 0.34839 l 1.12023,-5.302491 c -1.52683,-0.73023 -3.35242,-1.360888 -5.47675,-1.891967 -2.10769,-0.547674 -4.45608,-0.821511 -7.04508,-0.821511 z m -26.56225,0.672146 a 52.574134,53.137425 0 0 0 -8.3562,4.207139 h 14.20636 l 0.97086,-4.207139 z m 48.00454,4.563957 c -1.78145,2.017255 -2.69686,4.381638 -2.69686,7.111482 0,2.091121 0.71363,3.842025 2.14088,5.252703 1.42728,1.410677 3.44373,2.40645 6.04933,2.987319 1.3443,0.315333 2.75498,0.614058 4.23206,0.896192 1.49365,0.26554 2.77983,0.547675 3.85861,0.846409 1.29451,0.365127 2.2737,0.929388 2.93754,1.692812 0.68043,0.763428 1.02065,1.717713 1.02065,2.862847 0,2.174105 -0.946,3.966501 -2.83795,5.377178 -1.87535,1.394078 -4.58054,2.091121 -8.11557,2.091121 -2.1575,0 -4.39797,-0.398309 -6.72147,-1.194927 -2.30684,-0.813213 -4.25691,-1.974951 -5.85015,-3.485208 h -0.34839 l -1.19493,5.651016 c 2.09114,1.045558 4.22374,1.825582 6.39785,2.340066 2.17411,0.497884 4.46438,0.746828 6.87084,0.746828 2.78817,0 5.20292,-0.348515 7.24422,-1.045563 2.05795,-0.697039 3.85032,-1.659621 5.37719,-2.887739 1.01985,-0.818249 1.81647,-1.799045 2.51434,-2.85455 a 52.574134,53.137425 0 0 0 -7.96618,-14.480198 c -0.57446,-0.124612 -0.99112,-0.235969 -1.64303,-0.365128 -1.75919,-0.365127 -3.16991,-0.672145 -4.23206,-0.92109 -1.6596,-0.414921 -2.81307,-1.037261 -3.4603,-1.867074 -0.64724,-0.829809 -0.9709,-1.792391 -0.9709,-2.887739 0,-1.229125 0.36241,-2.315654 1.01241,-3.286053 a 52.574134,53.137425 0 0 0 -3.618,-2.580713 z m -62.72539,4.348211 a 52.574134,53.137425 0 0 0 -6.52231,6.904026 l -4.89589,21.251455 h 24.42133 l 0.97089,-4.20714 h -19.49226 l 3.23625,-14.015504 h 19.49225 l 0.9709,-4.182251 h -19.49226 z m -16.58792,27.126514 a 52.574134,53.137425 0 0 0 -0.21575,1.028967 h 0.90449 z" /></g></svg>
