<?xml version="1.0" encoding="UTF-8" standalone="no"?>
<!-- Created with Inkscape (http://www.inkscape.org/) -->

<svg
   version="1.1"
   id="svg132"
   width="256"
   height="256"
   viewBox="0 0 256 256"
   sodipodi:docname="icon.svg"
   inkscape:version="1.2.1 (9c6d41e410, 2022-07-14)"
   xml:space="preserve"
   inkscape:export-filename="icon-128x128.png"
   inkscape:export-xdpi="96"
   inkscape:export-ydpi="96"
   xmlns:inkscape="http://www.inkscape.org/namespaces/inkscape"
   xmlns:sodipodi="http://sodipodi.sourceforge.net/DTD/sodipodi-0.dtd"
   xmlns:xlink="http://www.w3.org/1999/xlink"
   xmlns="http://www.w3.org/2000/svg"
   xmlns:svg="http://www.w3.org/2000/svg"><defs
     id="defs136"><linearGradient
       id="linearGradient12183"
       inkscape:swatch="solid"><stop
         style="stop-color:#b35320;stop-opacity:1;"
         offset="0"
         id="stop12181" /></linearGradient><linearGradient
       inkscape:collect="always"
       xlink:href="#linearGradient12183"
       id="linearGradient12185"
       x1="24.06879"
       y1="62.477612"
       x2="34.571022"
       y2="62.477612"
       gradientUnits="userSpaceOnUse"
       gradientTransform="matrix(0.26425434,0,0,0.26425434,21.688355,24.929702)" /><mask
       maskUnits="userSpaceOnUse"
       id="mask22942"><path
         style="opacity:1;fill:#ffffff;fill-opacity:1;stroke:none;stroke-width:1.5;stroke-linecap:round;stroke-linejoin:miter;stroke-miterlimit:2.5;stroke-dasharray:none;stroke-opacity:1"
         d="m 498.5,324.25 134.25,6 -1.25,-153.5 -133.25,15.5 z"
         id="path22944" /></mask><mask
       maskUnits="userSpaceOnUse"
       id="mask29728"><rect
         style="opacity:1;fill:#ffffff;fill-opacity:1;stroke:none;stroke-width:4.0674;stroke-linecap:round;stroke-linejoin:miter;stroke-miterlimit:2.6;stroke-dasharray:32.5392, 12.2022;stroke-dashoffset:9.76176;stroke-opacity:1"
         id="rect29730"
         width="325.39194"
         height="325.39194"
         x="183.48497"
         y="-187.13782"
         ry="5.9200098e-05" /></mask><mask
       maskUnits="userSpaceOnUse"
       id="mask29752"><rect
         style="opacity:1;fill:#ffffff;fill-opacity:1;stroke:none;stroke-width:4.0674;stroke-linecap:round;stroke-linejoin:miter;stroke-miterlimit:2.6;stroke-dasharray:32.5392, 12.2022;stroke-dashoffset:9.76176;stroke-opacity:1"
         id="rect29754"
         width="325.39194"
         height="325.39194"
         x="34.770679"
         y="11.147897"
         ry="5.9200098e-05" /></mask></defs><sodipodi:namedview
     id="namedview134"
     pagecolor="#ffffff"
     bordercolor="#000000"
     borderopacity="0.25"
     inkscape:showpageshadow="2"
     inkscape:pageopacity="0.0"
     inkscape:pagecheckerboard="0"
     inkscape:deskcolor="#d1d1d1"
     showgrid="false"
     inkscape:zoom="0.70710678"
     inkscape:cx="613.06158"
     inkscape:cy="328.80465"
     inkscape:window-width="1920"
     inkscape:window-height="991"
     inkscape:window-x="-9"
     inkscape:window-y="-9"
     inkscape:window-maximized="1"
     inkscape:current-layer="g138" /><path
     id="path29233"
     style="display:inline;opacity:1;fill:#ffaf04;stroke-width:4.27929;stroke-linecap:round;stroke-miterlimit:2.5"
     d="M 184.67511 52.427128 L -15.403176 52.426998 L -70.393787 246.13201 L 34.25419 275.84036 L 187.2883 275.84053 L 245.78756 69.776246 L 184.67511 52.427128 z "
     transform="rotate(-15.848631)" /><g
     inkscape:groupmode="layer"
     id="layer1"
     inkscape:label="Image 1" /><g
     inkscape:groupmode="layer"
     inkscape:label="Image"
     id="g138"
     style="display:inline"><path
       style="fill:#ffffff;stroke-width:3.2;stroke-linecap:round;stroke-miterlimit:2.6;stroke-dasharray:25.6, 9.6;stroke-dashoffset:7.68"
       d="m 39,134.5 -12,-25 1,-20.5 18,4 3,34 z"
       id="path482" /><g
       id="g14910"
       transform="matrix(3.7842331,0,0,3.7842331,-82.07379,-94.33979)"><path
         style="fill:url(#linearGradient12185);fill-opacity:1;stroke:#e36868;stroke-width:1.13386;stroke-linecap:round;stroke-linejoin:miter;stroke-miterlimit:2.5;stroke-dasharray:none;stroke-opacity:1"
         d="m 24.638628,73.927734 v -24 c 0,0 -0.142488,-4.982172 2.054653,-3.324934 2.197141,1.657238 2.197141,7.137315 2.197141,7.137315 l 4.520373,9.527241 0.593701,15.747233 L 32.350135,75.5 c 0,0 1.017218,4.168766 -7.711507,-1.572266 z"
         id="path12178" /><path
         style="fill:#4162df;fill-opacity:0.748792;stroke:#a639ff;stroke-width:1.22566;stroke-linecap:round;stroke-linejoin:miter;stroke-miterlimit:2.5;stroke-dasharray:none;stroke-opacity:1"
         d="m 54.004131,74.586509 -0.516053,-20.093165 31.753782,0.12989 v 13.70441 z"
         id="path14649" /><path
         style="opacity:0.797297;fill:#eaa683;fill-opacity:1;stroke:#ff1c82;stroke-width:1.21434;stroke-linecap:round;stroke-linejoin:miter;stroke-miterlimit:2.5;stroke-dasharray:none;stroke-opacity:1"
         d="m 53.468174,59.097718 33.452513,-6.78573 -0.517194,-11.020171 -32.56279,3.539651 -0.372529,14.26625 v 0 0 0"
         id="path12297" /><path
         style="fill:#1e81b0;fill-opacity:1;stroke:#ffffff;stroke-width:1.13386;stroke-linecap:round;stroke-linejoin:miter;stroke-miterlimit:2.5;stroke-dasharray:none;stroke-opacity:1"
         d="M 29.472725,78.016894 31.611438,60.600859 34.117902,58.5 33.14563,49.360804 c 0,0 3.334387,0.248992 8.142604,-0.63091 4.808217,-0.879902 10.477383,-4.675508 10.477383,-4.675508 l 2.533278,30.589195 c 0,0 -2.152571,6.716333 -13.286702,6.58531 C 28.549436,81.082233 29.472725,78.016894 29.472725,78.016894 Z"
         id="path11529"
         sodipodi:nodetypes="ccccsccsc" /><rect
         style="opacity:1;fill:#1e81b0;fill-opacity:1;stroke:#ffffff;stroke-width:1.178;stroke-linecap:round;stroke-linejoin:miter;stroke-miterlimit:2.5;stroke-dasharray:none;stroke-opacity:0.548309"
         id="rect14758"
         width="10.883657"
         height="11.945292"
         x="74.375"
         y="56.389439"
         ry="2.0934336e-05" /><path
         style="fill:#eaa683;fill-opacity:1;stroke:#ff1c82;stroke-width:1.13386;stroke-linecap:round;stroke-linejoin:miter;stroke-miterlimit:2.5;stroke-dasharray:none;stroke-opacity:1"
         d="m 24.611326,43.517974 c 0,0 3.761334,-5.767976 11.627896,-5.767976 7.866563,0 23.023467,4.196166 12.408214,9.524484 -10.615254,5.328318 -24.527075,4.140962 -24.03611,-3.756508 z"
         id="path12241" /><path
         id="rect2132"
         style="fill:#b9b9b9;fill-opacity:0;stroke:#000000;stroke-width:1.13386;stroke-linecap:round;stroke-linejoin:miter;stroke-miterlimit:2.5;stroke-dasharray:none"
         d="m 38.019531,38.323242 c -7.406085,-0.04081 -13.409658,2.290659 -13.408203,5.207032 -0.07256,17.238537 0.133757,15.560878 0.0273,30.39746 -2.75e-4,2.916035 5.975609,5.309048 13.380859,5.34961 7.403374,0.04037 13.40495,-2.289788 13.40625,-5.205078 -0.01141,-17.04687 -0.0012,-15.695339 0,-30.395508 C 48.834505,39.08562 41.346786,38.38148 38.019531,38.323242 Z"
         sodipodi:nodetypes="ccccccc" /><ellipse
         style="fill:#c3c3c3;fill-opacity:0;stroke:#000000;stroke-width:1.12288;stroke-linecap:round;stroke-linejoin:miter;stroke-miterlimit:2.5;stroke-dasharray:none;stroke-opacity:1"
         id="ellipse2961"
         cx="38.019547"
         cy="43.382763"
         rx="13.407849"
         ry="5.2796574"
         transform="matrix(0.99998491,0.00549378,0,1,0,0)" /><path
         id="path3170"
         style="fill:none;stroke:#000000;stroke-width:1.13386;stroke-linecap:round;stroke-linejoin:miter;stroke-miterlimit:2.5;stroke-dasharray:none"
         d="m 24.638628,67.927734 c -2.75e-4,2.916035 5.975609,5.309048 13.380859,5.34961 7.403374,0.04037 13.40495,-2.289788 13.40625,-5.205078"
         sodipodi:nodetypes="ccc" /><rect
         style="display:inline;opacity:0.716216;fill:#184402;fill-opacity:0.94686;stroke:#4fb97d;stroke-width:0.807669;stroke-linecap:round;stroke-linejoin:miter;stroke-miterlimit:2.5;stroke-dasharray:none;stroke-opacity:1"
         id="rect3970"
         width="25.629509"
         height="4.5153661"
         x="47.341778"
         y="50.24247"
         ry="0.79890245"
         rx="0.33785972"
         transform="matrix(0.99707802,-0.07638992,0.15922482,0.98724235,0,0)" /><path
         id="path3172"
         style="fill:none;stroke:#000000;stroke-width:1.13386;stroke-linecap:round;stroke-linejoin:miter;stroke-miterlimit:2.5;stroke-dasharray:none"
         d="m 24.638628,61.927734 c -2.75e-4,2.916035 5.975609,5.309048 13.380859,5.34961 7.403374,0.04037 13.40495,-2.289788 13.40625,-5.205078"
         sodipodi:nodetypes="ccc" /><path
         id="path3174"
         style="fill:none;stroke:#000000;stroke-width:1.13386;stroke-linecap:round;stroke-linejoin:miter;stroke-miterlimit:2.5;stroke-dasharray:none"
         d="m 24.638628,55.927734 c -2.75e-4,2.916035 5.975609,5.309048 13.380859,5.34961 7.403374,0.04037 13.40495,-2.289788 13.40625,-5.205078"
         sodipodi:nodetypes="ccc" /><path
         id="path3176"
         style="fill:none;stroke:#000000;stroke-width:1.13386;stroke-linecap:round;stroke-linejoin:miter;stroke-miterlimit:2.5;stroke-dasharray:none"
         d="m 24.638628,49.927734 c -2.75e-4,2.916035 5.975609,5.309048 13.380859,5.34961 7.403374,0.04037 13.40495,-2.289788 13.40625,-5.205078"
         sodipodi:nodetypes="ccc" /><path
         id="path3178"
         style="fill:none;stroke:#000000;stroke-width:1.13386;stroke-linecap:round;stroke-linejoin:miter;stroke-miterlimit:2.5;stroke-dasharray:none"
         d="m 24.638628,43.927734 c -2.75e-4,2.916035 5.975609,5.309048 13.380859,5.34961 7.403374,0.04037 13.40495,-2.289788 13.40625,-5.205078"
         sodipodi:nodetypes="ccc" /><rect
         style="fill:none;fill-opacity:1;stroke:#000000;stroke-width:1.04631;stroke-linecap:round;stroke-linejoin:miter;stroke-miterlimit:2.5;stroke-dasharray:none;stroke-opacity:1"
         id="rect3232"
         width="34.292076"
         height="31.021366"
         x="51.38208"
         y="43.622215"
         ry="2.1719581e-05" /><rect
         style="fill:none;fill-opacity:1;stroke:#000000;stroke-width:1.06971;stroke-linecap:round;stroke-linejoin:miter;stroke-miterlimit:2.5;stroke-dasharray:none;stroke-opacity:1"
         id="rect3234"
         width="33.896229"
         height="0.23600227"
         x="51.391968"
         y="50.046379"
         ry="2.2716493e-05" /><rect
         style="fill:none;fill-opacity:1;stroke:#000000;stroke-width:1.06971;stroke-linecap:round;stroke-linejoin:miter;stroke-miterlimit:2.5;stroke-dasharray:none;stroke-opacity:1"
         id="rect3962"
         width="33.896229"
         height="0.23600227"
         x="51.391968"
         y="56.271439"
         ry="2.2716493e-05" /><path
         style="display:inline;opacity:1;fill:#652727;fill-opacity:0.693237;stroke:#ffffff;stroke-width:1.178;stroke-linecap:round;stroke-linejoin:miter;stroke-miterlimit:2.5;stroke-dasharray:none;stroke-opacity:1"
         id="path12357"
         sodipodi:type="arc"
         sodipodi:cx="77.015945"
         sodipodi:cy="74.407433"
         sodipodi:rx="9.5466862"
         sodipodi:ry="3.2308726"
         sodipodi:start="0"
         sodipodi:end="4.7547127"
         sodipodi:arc-type="slice"
         d="m 86.562632,74.407433 a 9.5466862,3.2308726 0 0 1 -5.986854,2.997852 9.5466862,3.2308726 0 0 1 -10.451691,-0.762134 9.5466862,3.2308726 0 0 1 -1.807738,-3.566231 9.5466862,3.2308726 0 0 1 9.103527,-1.897467 l -0.403931,3.22798 z" /><rect
         style="fill:none;fill-opacity:1;stroke:#000000;stroke-width:1.06971;stroke-linecap:round;stroke-linejoin:miter;stroke-miterlimit:2.5;stroke-dasharray:none;stroke-opacity:1"
         id="rect3964"
         width="33.896229"
         height="0.23600227"
         x="51.391968"
         y="62.496498"
         ry="2.2716493e-05" /><rect
         style="fill:none;fill-opacity:1;stroke:#000000;stroke-width:1.06971;stroke-linecap:round;stroke-linejoin:miter;stroke-miterlimit:2.5;stroke-dasharray:none;stroke-opacity:1"
         id="rect3966"
         width="33.896229"
         height="0.23600227"
         x="51.391968"
         y="68.721558"
         ry="2.2716493e-05" /><rect
         style="fill:none;fill-opacity:1;stroke:#000000;stroke-width:1.01823;stroke-linecap:round;stroke-linejoin:miter;stroke-miterlimit:2.5;stroke-dasharray:none;stroke-opacity:1"
         id="rect3968"
         width="11.958422"
         height="31.065109"
         x="62.36087"
         y="43.606785"
         ry="2.170574e-05" /></g></g></svg>
